# xmcd CD database file
#
# Track frame offsets:
#	150
#	18889
#	36292
#	59509
#	71968
#	90912
#	108939
#	126483
#	152438
#	170412
#	191185
#	208741
#	226060
#	246553
#	268619
#
# Disc length: 3806 seconds
#
# Revision: 3
# Processed by: cddbd v1.5.2PL0 Copyright (c) Steve Scherf et al.
# Submitted via: CDex 1.51
#
DISCID=d30edc0f
DTITLE=Yanni - In the mirror
DYEAR=1997
DGENRE=New Age
TTITLE0=In the mirror
TTITLE1=In the morning light
TTITLE2=A love for life
TTITLE3=One man's dream
TTITLE4=Within attraction
TTITLE5=Forbidden dreams
TTITLE6=Once upon a time
TTITLE7=Chasing shadow
TTITLE8=Aria
TTITLE9=Quiet man
TTITLE10=Enchantment
TTITLE11=So long my friend
TTITLE12=Before I go
TTITLE13=The end of august
TTITLE14=Face in the photograph
EXTD=YEAR: 1997
EXTT0=
EXTT1=
EXTT2=
EXTT3=
EXTT4=
EXTT5=
EXTT6=
EXTT7=
EXTT8=
EXTT9=
EXTT10=
EXTT11=
EXTT12=
EXTT13=
EXTT14=
PLAYORDER=
